<svg width="20" height="20" viewBox="0 0 20 20" fill="none" xmlns="http://www.w3.org/2000/svg">
<g opacity="0.8">
<path fill-rule="evenodd" clip-rule="evenodd" d="M2.66251 10.9375C2.66251 10.5095 3.00949 10.1625 3.43751 10.1625H7.81251C8.24053 10.1625 8.58751 10.5095 8.58751 10.9375C8.58751 11.3655 8.24053 11.7125 7.81251 11.7125H4.21251V16.5625C4.21251 16.9905 3.86553 17.3375 3.43751 17.3375C3.00949 17.3375 2.66251 16.9905 2.66251 16.5625V10.9375Z" fill="white"/>
<path fill-rule="evenodd" clip-rule="evenodd" d="M1.41251 16.5625C1.41251 16.1345 1.75949 15.7875 2.18751 15.7875H17.8125C18.2405 15.7875 18.5875 16.1345 18.5875 16.5625C18.5875 16.9905 18.2405 17.3375 17.8125 17.3375H2.18751C1.75949 17.3375 1.41251 16.9905 1.41251 16.5625Z" fill="white"/>
<path fill-rule="evenodd" clip-rule="evenodd" d="M7.03751 7.18751C7.03751 6.75949 7.38449 6.41251 7.81251 6.41251H12.1875C12.6155 6.41251 12.9625 6.75949 12.9625 7.18751C12.9625 7.61553 12.6155 7.96251 12.1875 7.96251H8.58751V16.5625C8.58751 16.9905 8.24053 17.3375 7.81251 17.3375C7.38449 17.3375 7.03751 16.9905 7.03751 16.5625V7.18751Z" fill="white"/>
<path fill-rule="evenodd" clip-rule="evenodd" d="M11.4125 3.43751C11.4125 3.00949 11.7595 2.66251 12.1875 2.66251H16.5625C16.9905 2.66251 17.3375 3.00949 17.3375 3.43751V16.5625C17.3375 16.9905 16.9905 17.3375 16.5625 17.3375H12.1875C11.7595 17.3375 11.4125 16.9905 11.4125 16.5625V3.43751ZM12.9625 4.21251V15.7875H15.7875V4.21251H12.9625Z" fill="white"/>
</g>
</svg>
