<svg width="20" height="20" viewBox="0 0 20 20" fill="none" xmlns="http://www.w3.org/2000/svg">
<g opacity="0.8">
<path fill-rule="evenodd" clip-rule="evenodd" d="M14.6125 15.25V16.7875C14.6141 16.8854 14.5963 16.9826 14.56 17.0736C14.5236 17.1645 14.4696 17.2473 14.4009 17.3171C14.3323 17.3869 14.2504 17.4423 14.1601 17.4802C14.0698 17.518 13.9729 17.5375 13.875 17.5375C13.6761 17.5375 13.4853 17.4585 13.3446 17.3178C13.204 17.1772 13.125 16.9864 13.125 16.7875V15.25C13.125 14.6267 12.8774 14.029 12.4367 13.5883C11.9959 13.1476 11.3982 12.9 10.775 12.9H4.58746C3.96637 12.9033 3.37187 13.1523 2.93386 13.5927C2.49585 14.033 2.24995 14.6289 2.24996 15.25V16.7875C2.24996 16.9864 2.17096 17.1772 2.03031 17.3178C1.88966 17.4585 1.69887 17.5375 1.49995 17.5375C1.30104 17.5375 1.11029 17.4585 0.969635 17.3178C0.828983 17.1772 0.749985 16.9864 0.749985 16.7875V15.25C0.749985 14.2322 1.15428 13.2562 1.87395 12.5365C2.59362 11.8168 3.56969 11.4125 4.58746 11.4125H10.775C11.2794 11.4108 11.7791 11.509 12.2455 11.7013C12.7118 11.8935 13.1355 12.1761 13.4922 12.5328C13.8489 12.8895 14.1314 13.3132 14.3237 13.7795C14.516 14.2458 14.6141 14.7456 14.6125 15.25Z" fill="white"/>
<path fill-rule="evenodd" clip-rule="evenodd" d="M7.64997 2.12501C6.89098 2.12501 6.14904 2.35008 5.51797 2.77175C4.8869 3.19342 4.39504 3.79276 4.10459 4.49397C3.81414 5.19518 3.73813 5.96675 3.8862 6.71115C4.03427 7.45555 4.39977 8.13934 4.93646 8.67602C5.47314 9.21271 6.15689 9.57822 6.90129 9.72629C7.6457 9.87436 8.4173 9.79835 9.11851 9.5079C9.81972 9.21744 10.4191 8.72559 10.8407 8.09451C11.2624 7.46344 11.4875 6.7215 11.4875 5.96252C11.4842 4.94576 11.0788 3.97159 10.3599 3.25263C9.64089 2.53367 8.66672 2.1283 7.64997 2.12501ZM7.64997 8.31252C7.18518 8.31252 6.73084 8.1747 6.34439 7.91648C5.95793 7.65826 5.6567 7.29124 5.47883 6.86183C5.30097 6.43242 5.25445 5.95992 5.34513 5.50407C5.4358 5.04821 5.65963 4.62945 5.98829 4.3008C6.31694 3.97214 6.73566 3.74835 7.19152 3.65768C7.64737 3.567 8.11988 3.61352 8.54928 3.79138C8.97869 3.96925 9.34571 4.27048 9.60393 4.65694C9.86215 5.04339 9.99997 5.49773 9.99997 5.96252C9.99997 6.58578 9.75236 7.18349 9.31165 7.6242C8.87094 8.06491 8.27323 8.31252 7.64997 8.31252Z" fill="white"/>
<path fill-rule="evenodd" clip-rule="evenodd" d="M19.25 15.25V16.7875C19.2516 16.8854 19.2338 16.9826 19.1975 17.0736C19.1612 17.1645 19.1071 17.2473 19.0384 17.3171C18.9698 17.3869 18.8879 17.4423 18.7976 17.4802C18.7073 17.518 18.6104 17.5375 18.5125 17.5375C18.3136 17.5375 18.1228 17.4585 17.9821 17.3178C17.8415 17.1772 17.7625 16.9864 17.7625 16.7875V15.25C17.7645 14.7285 17.5922 14.2213 17.2728 13.8091C16.9534 13.3969 16.5054 13.1033 16 12.975C15.8078 12.925 15.6434 12.8009 15.5426 12.6298C15.4419 12.4588 15.4131 12.2548 15.4625 12.0625C15.488 11.968 15.5321 11.8796 15.5922 11.8023C15.6523 11.725 15.7272 11.6605 15.8125 11.6125C15.9244 11.5417 16.0552 11.5069 16.1874 11.5125C16.2494 11.5004 16.3131 11.5004 16.375 11.5125C17.2029 11.7247 17.9358 12.2081 18.4569 12.8855C18.978 13.5629 19.2572 14.3954 19.25 15.25Z" fill="white"/>
<path fill-rule="evenodd" clip-rule="evenodd" d="M16.1625 5.97501C16.1696 6.83289 15.889 7.66839 15.3656 8.34813C14.8422 9.02788 14.1062 9.51266 13.275 9.72501C13.1809 9.75027 13.0828 9.75665 12.9862 9.74378C12.8897 9.73091 12.7966 9.699 12.7124 9.64998C12.5441 9.5455 12.4231 9.37964 12.375 9.18748C12.3497 9.09342 12.3433 8.99529 12.3562 8.89875C12.3691 8.8022 12.4009 8.70917 12.45 8.625C12.5554 8.45759 12.7209 8.33682 12.9124 8.28748C13.4166 8.15698 13.863 7.86273 14.1818 7.45096C14.5005 7.03918 14.6735 6.53324 14.6735 6.01251C14.6735 5.49178 14.5005 4.9858 14.1818 4.57403C13.863 4.16225 13.4166 3.86801 12.9124 3.7375C12.7199 3.68279 12.5549 3.55791 12.45 3.3875C12.4003 3.3036 12.368 3.21052 12.3551 3.11387C12.3422 3.01722 12.349 2.91897 12.375 2.82499C12.3983 2.73034 12.4402 2.64127 12.4982 2.56292C12.5562 2.48456 12.6291 2.4185 12.7128 2.36852C12.7965 2.31854 12.8893 2.28561 12.9858 2.2717C13.0823 2.2578 13.1806 2.26318 13.275 2.2875C14.0958 2.4972 14.8242 2.97262 15.3465 3.63965C15.8688 4.30668 16.1557 5.12784 16.1625 5.97501Z" fill="white"/>
</g>
</svg>
