<svg width="20" height="20" viewBox="0 0 20 20" fill="none" xmlns="http://www.w3.org/2000/svg">
<g opacity="0.8">
<path fill-rule="evenodd" clip-rule="evenodd" d="M0.833298 3.03704C0.833298 2.65237 1.14377 2.34055 1.52675 2.34055H13.0811C13.4641 2.34055 13.7746 2.65237 13.7746 3.03704V13.0947C13.7746 13.4794 13.4641 13.7912 13.0811 13.7912H1.52675C1.14377 13.7912 0.833298 13.4794 0.833298 13.0947V3.03704ZM2.2202 3.73353V12.3982H12.3877V3.73353H2.2202Z" fill="white"/>
<path fill-rule="evenodd" clip-rule="evenodd" d="M12.3877 6.90539C12.3877 6.52073 12.6981 6.20891 13.0811 6.20891H16.1623C16.3462 6.20891 16.5226 6.28229 16.6526 6.4129L18.9635 8.7339C19.0936 8.86452 19.1666 9.04167 19.1666 9.22639V13.0947C19.1666 13.4794 18.8562 13.7912 18.4732 13.7912L13.0811 13.7912C12.6982 13.7912 12.3877 13.4794 12.3877 13.0947V6.90539ZM13.7746 7.60188V12.3982H17.7797V9.51489L15.8751 7.60188H13.7746Z" fill="white"/>
<path fill-rule="evenodd" clip-rule="evenodd" d="M4.99302 13.7912C4.31245 13.7912 3.76074 14.3453 3.76074 15.0288C3.76074 15.7124 4.31245 16.2665 4.99302 16.2665C5.67359 16.2665 6.2253 15.7124 6.2253 15.0288C6.2253 14.3453 5.67359 13.7912 4.99302 13.7912ZM2.37384 15.0288C2.37384 13.576 3.54649 12.3982 4.99302 12.3982C6.43956 12.3982 7.6122 13.576 7.6122 15.0288C7.6122 16.4817 6.43956 17.6595 4.99302 17.6595C3.54649 17.6595 2.37384 16.4817 2.37384 15.0288Z" fill="white"/>
<path fill-rule="evenodd" clip-rule="evenodd" d="M15.0069 13.7912C14.3263 13.7912 13.7746 14.3453 13.7746 15.0288C13.7746 15.7124 14.3263 16.2665 15.0069 16.2665C15.6874 16.2665 16.2391 15.7124 16.2391 15.0288C16.2391 14.3453 15.6874 13.7912 15.0069 13.7912ZM12.3877 15.0288C12.3877 13.576 13.5603 12.3982 15.0069 12.3982C16.4534 12.3982 17.626 13.576 17.626 15.0288C17.626 16.4817 16.4534 17.6595 15.0069 17.6595C13.5603 17.6595 12.3877 16.4817 12.3877 15.0288Z" fill="white"/>
</g>
</svg>
