<svg width="20" height="20" viewBox="0 0 20 20" fill="none" xmlns="http://www.w3.org/2000/svg">
<g opacity="0.8">
<path fill-rule="evenodd" clip-rule="evenodd" d="M14.297 1.98737C14.1117 1.19626 13.4056 0.625 12.5803 0.625H7.41973L7.2888 0.629913L7.15273 0.645423L7.01891 0.671421C6.2278 0.856753 5.65654 1.56287 5.65654 2.38819V2.60323H4.19438L4.04435 2.60717C2.703 2.67794 1.61411 3.69145 1.61411 4.96848V17.0098L1.61854 17.1505C1.69806 18.4071 2.83548 19.375 4.19438 19.375H15.8056L15.9557 19.3711C17.297 19.3003 18.3859 18.2868 18.3859 17.0098V4.96848L18.3815 4.82771C18.3019 3.57113 17.1645 2.60323 15.8056 2.60323H14.3435V2.38819L14.3386 2.25726L14.323 2.12119L14.297 1.98737ZM14.3435 3.89336V4.10837C14.3435 4.93369 13.7722 5.63981 12.9811 5.82514L12.8473 5.85114L12.7112 5.86665L12.5803 5.87156H7.41973C6.59441 5.87156 5.88829 5.3003 5.70296 4.5092L5.67696 4.37537L5.66145 4.2393L5.65654 4.10837V3.89336H4.19438C3.50888 3.89336 2.97091 4.33572 2.90999 4.86776L2.90424 4.96848V17.0098C2.90424 17.5516 3.40189 18.0259 4.06766 18.0798L4.19438 18.0849H15.8056C16.4911 18.0849 17.0291 17.6425 17.09 17.1105L17.0958 17.0098V4.96848C17.0958 4.42661 16.5981 3.95238 15.9323 3.89846L15.8056 3.89336H14.3435ZM7.67749 1.61411H12.3225C12.7695 1.61411 13.159 1.90084 13.3003 2.31864L13.3304 2.42573L13.3486 2.53612L13.3546 2.64625L13.3541 3.86708L13.3451 3.98931L13.3238 4.10085L13.2869 4.21899C13.1781 4.50363 12.9482 4.72443 12.6587 4.8251L12.5475 4.85711L12.4312 4.87652L12.3225 4.88246L7.66076 4.88191L7.53852 4.87291L7.42698 4.85165L7.30885 4.81468C7.0242 4.70593 6.8034 4.47604 6.70273 4.18656L6.67072 4.07533L6.65131 3.95905L6.64538 3.85031L6.64592 2.62948L6.65492 2.50725L6.67618 2.39571L6.71315 2.27757C6.82191 1.99293 7.05179 1.77213 7.34127 1.67146L7.4525 1.63945L7.56878 1.62004L7.67749 1.61411Z" fill="white"/>
<path d="M5.46293 10.5959C5.93816 10.5959 6.3234 10.2107 6.3234 9.73547C6.3234 9.26025 5.93816 8.875 5.46293 8.875C4.98771 8.875 4.60246 9.26025 4.60246 9.73547C4.60246 10.2107 4.98771 10.5959 5.46293 10.5959Z" fill="white"/>
<path d="M8.04437 8.9485C7.61235 8.9485 7.26213 9.29872 7.26213 9.73075C7.26213 10.1628 7.61235 10.513 8.04437 10.513H14.6152C15.0473 10.513 15.3975 10.1628 15.3975 9.73075C15.3975 9.29872 15.0473 8.9485 14.6152 8.9485H8.04437Z" fill="white"/>
<path d="M7.26216 14.1522C7.26216 13.7202 7.61239 13.3699 8.04441 13.3699H14.6153C15.0473 13.3699 15.3975 13.7202 15.3975 14.1522C15.3975 14.5842 15.0473 14.9344 14.6153 14.9344H8.04441C7.61239 14.9344 7.26216 14.5842 7.26216 14.1522Z" fill="white"/>
<path d="M5.46297 15.0174C5.93819 15.0174 6.32344 14.6321 6.32344 14.1569C6.32344 13.6817 5.93819 13.2964 5.46297 13.2964C4.98774 13.2964 4.6025 13.6817 4.6025 14.1569C4.6025 14.6321 4.98774 15.0174 5.46297 15.0174Z" fill="white"/>
</g>
</svg>
