<svg width="20" height="20" viewBox="0 0 20 20" fill="none" xmlns="http://www.w3.org/2000/svg">
<g opacity="0.8">
<path fill-rule="evenodd" clip-rule="evenodd" d="M18.8083 7.41667C18.6833 7.16667 18.425 7 18.1416 7H11.0916L11.8666 0.816667C11.9083 0.5 11.7333 0.183333 11.4333 0.0583333C11.3416 0.0166667 11.2416 0 11.15 0C10.9333 0 10.725 0.0916667 10.5833 0.258333L1.83329 10.7583C1.64996 10.975 1.61663 11.2833 1.73329 11.5333C1.84996 11.7917 2.11663 11.9583 2.39163 11.9583H9.44163L8.66663 18.1333C8.63329 18.4583 8.80829 18.7667 9.09996 18.9C9.39996 19.025 9.74996 18.9417 9.95829 18.6917L18.7083 8.19167C18.8833 7.975 18.925 7.675 18.8083 7.41667ZM10.425 15.85L10.9916 11.3167C11.0166 11.1083 10.95 10.9 10.8166 10.7417C10.675 10.5917 10.475 10.5 10.2666 10.5H3.94996L10.1083 3.10833L9.54163 7.63333C9.51663 7.84167 9.58329 8.05 9.72496 8.20833C9.85829 8.36667 10.0583 8.45833 10.2666 8.45833H16.5833L10.425 15.85Z" fill="white"/>
</g>
</svg>
