<svg width="20" height="20" viewBox="0 0 20 20" fill="none" xmlns="http://www.w3.org/2000/svg">
<g opacity="0.8">
<path d="M3.43894 3.49164L15.924 8.22494L11.5643 10.1656C10.9255 10.4416 10.4159 10.9492 10.1388 11.5856L8.20252 15.9284L3.45083 3.49164H3.43894ZM2.14414 1.12499C1.97843 1.12541 1.81527 1.16597 1.6688 1.24319C1.52233 1.32041 1.39691 1.43197 1.30338 1.56823C1.20984 1.7045 1.15093 1.8614 1.13183 2.02538C1.11273 2.18936 1.13401 2.35548 1.19375 2.50946L7.13336 18.2122C7.20633 18.4075 7.33772 18.5758 7.5098 18.6943C7.68189 18.8128 7.88644 18.8758 8.09564 18.8749C8.29601 18.878 8.49264 18.821 8.66002 18.7113C8.82741 18.6015 8.95769 18.4441 9.034 18.2595L11.7187 12.2601C11.8175 12.0249 12.0053 11.8378 12.2415 11.7394L18.2761 9.06509C18.4599 8.98022 18.6147 8.84337 18.7211 8.67158C18.8275 8.49979 18.8809 8.30063 18.8745 8.09887C18.8682 7.89712 18.8024 7.7017 18.6854 7.53686C18.5685 7.37202 18.4054 7.24504 18.2166 7.17177L2.46476 1.25514C2.34336 1.2089 2.21466 1.18486 2.08469 1.18414L2.14414 1.12499Z" fill="white"/>
</g>
</svg>
